<mxfile host="app.diagrams.net" modified="2021-08-05T15:22:54.556Z" agent="5.0 (Windows NT 10.0; Win64; x64) AppleWebKit/537.36 (KHTML, like Gecko) Chrome/92.0.4515.131 Safari/537.36" etag="GUrEg_kCx3rZ4M1-w20B" version="14.6.9" type="github">
  <diagram id="TEFfdI7SuJgbTy4nAbBn" name="第 1 页">
    <mxGraphModel dx="1032" dy="961" grid="1" gridSize="10" guides="1" tooltips="1" connect="1" arrows="1" fold="1" page="1" pageScale="1" pageWidth="827" pageHeight="1169" math="0" shadow="0">
      <root>
        <mxCell id="0" />
        <mxCell id="1" parent="0" />
        <mxCell id="0lumbmYqUkXYzNoHHmEW-7" value="&lt;font color=&quot;#ff0000&quot;&gt;&lt;b&gt;客户端&lt;/b&gt;&lt;/font&gt;" style="rounded=0;whiteSpace=wrap;html=1;" vertex="1" parent="1">
          <mxGeometry y="80" width="90" height="480" as="geometry" />
        </mxCell>
        <mxCell id="0lumbmYqUkXYzNoHHmEW-9" value="" style="endArrow=classic;html=1;exitX=1.041;exitY=0.083;exitDx=0;exitDy=0;exitPerimeter=0;" edge="1" parent="1" source="0lumbmYqUkXYzNoHHmEW-7">
          <mxGeometry width="50" height="50" relative="1" as="geometry">
            <mxPoint x="410" y="350" as="sourcePoint" />
            <mxPoint x="200" y="120" as="targetPoint" />
            <Array as="points">
              <mxPoint x="160" y="120" />
            </Array>
          </mxGeometry>
        </mxCell>
        <mxCell id="0lumbmYqUkXYzNoHHmEW-10" value="" style="rounded=0;whiteSpace=wrap;html=1;" vertex="1" parent="1">
          <mxGeometry x="200" y="80" width="160" height="480" as="geometry" />
        </mxCell>
        <mxCell id="0lumbmYqUkXYzNoHHmEW-11" value="&lt;b&gt;&lt;font color=&quot;#ff3333&quot;&gt;鉴权过滤器&lt;br&gt;&lt;/font&gt;&lt;/b&gt;&lt;br&gt;白名单&lt;br&gt;/auth/login" style="rounded=1;whiteSpace=wrap;html=1;" vertex="1" parent="1">
          <mxGeometry x="215" y="100" width="130" height="100" as="geometry" />
        </mxCell>
        <mxCell id="0lumbmYqUkXYzNoHHmEW-12" value="&lt;b&gt;&lt;font color=&quot;#ff0000&quot;&gt;微服务路由&lt;/font&gt;&lt;/b&gt;&lt;br&gt;auth-service-api&lt;br&gt;user-service-api" style="rounded=1;whiteSpace=wrap;html=1;" vertex="1" parent="1">
          <mxGeometry x="220" y="320" width="125" height="160" as="geometry" />
        </mxCell>
        <mxCell id="0lumbmYqUkXYzNoHHmEW-13" value="" style="endArrow=classic;html=1;exitX=1.006;exitY=0.079;exitDx=0;exitDy=0;exitPerimeter=0;" edge="1" parent="1" source="0lumbmYqUkXYzNoHHmEW-10">
          <mxGeometry width="50" height="50" relative="1" as="geometry">
            <mxPoint x="410" y="280" as="sourcePoint" />
            <mxPoint x="490" y="118" as="targetPoint" />
          </mxGeometry>
        </mxCell>
        <mxCell id="0lumbmYqUkXYzNoHHmEW-14" value="&lt;b&gt;&lt;font color=&quot;#ff0000&quot;&gt;Nacos&lt;/font&gt;&lt;br&gt;&lt;br&gt;&lt;font color=&quot;#ff0000&quot;&gt;服务注册中心&lt;/font&gt;&lt;br&gt;&lt;br&gt;&lt;font color=&quot;#333333&quot;&gt;auth-service&lt;br&gt;user-service&lt;br&gt;order-service&lt;/font&gt;&lt;br&gt;&lt;/b&gt;" style="rounded=0;whiteSpace=wrap;html=1;" vertex="1" parent="1">
          <mxGeometry x="490" y="80" width="160" height="480" as="geometry" />
        </mxCell>
        <mxCell id="0lumbmYqUkXYzNoHHmEW-15" value="登录接口放行" style="text;html=1;align=center;verticalAlign=middle;resizable=0;points=[];autosize=1;strokeColor=none;" vertex="1" parent="1">
          <mxGeometry x="370" y="90" width="110" height="20" as="geometry" />
        </mxCell>
        <mxCell id="0lumbmYqUkXYzNoHHmEW-16" value="" style="endArrow=classic;html=1;entryX=1;entryY=0.25;entryDx=0;entryDy=0;exitX=0;exitY=0.25;exitDx=0;exitDy=0;" edge="1" parent="1" source="0lumbmYqUkXYzNoHHmEW-10" target="0lumbmYqUkXYzNoHHmEW-7">
          <mxGeometry width="50" height="50" relative="1" as="geometry">
            <mxPoint x="160" y="200" as="sourcePoint" />
            <mxPoint x="210" y="150" as="targetPoint" />
          </mxGeometry>
        </mxCell>
        <mxCell id="0lumbmYqUkXYzNoHHmEW-17" value="登录认证" style="text;html=1;align=center;verticalAlign=middle;resizable=0;points=[];autosize=1;strokeColor=none;" vertex="1" parent="1">
          <mxGeometry x="110" y="90" width="80" height="20" as="geometry" />
        </mxCell>
        <mxCell id="0lumbmYqUkXYzNoHHmEW-18" value="返回 JWT" style="text;html=1;align=center;verticalAlign=middle;resizable=0;points=[];autosize=1;strokeColor=none;" vertex="1" parent="1">
          <mxGeometry x="110" y="210" width="80" height="20" as="geometry" />
        </mxCell>
        <mxCell id="0lumbmYqUkXYzNoHHmEW-19" value="" style="endArrow=classic;html=1;entryX=1;entryY=0.25;entryDx=0;entryDy=0;exitX=0;exitY=0.25;exitDx=0;exitDy=0;" edge="1" parent="1" source="0lumbmYqUkXYzNoHHmEW-14" target="0lumbmYqUkXYzNoHHmEW-10">
          <mxGeometry width="50" height="50" relative="1" as="geometry">
            <mxPoint x="440" y="200" as="sourcePoint" />
            <mxPoint x="490" y="150" as="targetPoint" />
          </mxGeometry>
        </mxCell>
        <mxCell id="0lumbmYqUkXYzNoHHmEW-20" value="返回 JWT" style="text;html=1;align=center;verticalAlign=middle;resizable=0;points=[];autosize=1;strokeColor=none;" vertex="1" parent="1">
          <mxGeometry x="385" y="210" width="80" height="20" as="geometry" />
        </mxCell>
        <mxCell id="0lumbmYqUkXYzNoHHmEW-21" value="&lt;b&gt;&lt;font color=&quot;#ff0000&quot;&gt;微服务&lt;br&gt;&lt;/font&gt;&lt;/b&gt;auth-service" style="rounded=1;whiteSpace=wrap;html=1;" vertex="1" parent="1">
          <mxGeometry x="790" y="90" width="120" height="120" as="geometry" />
        </mxCell>
        <mxCell id="0lumbmYqUkXYzNoHHmEW-22" value="" style="endArrow=classic;html=1;entryX=-0.031;entryY=0.339;entryDx=0;entryDy=0;entryPerimeter=0;exitX=1.005;exitY=0.104;exitDx=0;exitDy=0;exitPerimeter=0;" edge="1" parent="1" source="0lumbmYqUkXYzNoHHmEW-14" target="0lumbmYqUkXYzNoHHmEW-21">
          <mxGeometry width="50" height="50" relative="1" as="geometry">
            <mxPoint x="650" y="120" as="sourcePoint" />
            <mxPoint x="750" y="120" as="targetPoint" />
          </mxGeometry>
        </mxCell>
        <mxCell id="0lumbmYqUkXYzNoHHmEW-23" value="转发到授权中心" style="text;html=1;align=center;verticalAlign=middle;resizable=0;points=[];autosize=1;strokeColor=none;" vertex="1" parent="1">
          <mxGeometry x="660" y="90" width="130" height="20" as="geometry" />
        </mxCell>
        <mxCell id="0lumbmYqUkXYzNoHHmEW-24" value="" style="endArrow=classic;html=1;entryX=1;entryY=0.25;entryDx=0;entryDy=0;" edge="1" parent="1" target="0lumbmYqUkXYzNoHHmEW-14">
          <mxGeometry width="50" height="50" relative="1" as="geometry">
            <mxPoint x="785" y="200" as="sourcePoint" />
            <mxPoint x="420" y="280" as="targetPoint" />
            <Array as="points" />
          </mxGeometry>
        </mxCell>
        <mxCell id="0lumbmYqUkXYzNoHHmEW-25" value="颁发JWT令牌" style="text;html=1;align=center;verticalAlign=middle;resizable=0;points=[];autosize=1;strokeColor=none;" vertex="1" parent="1">
          <mxGeometry x="670" y="210" width="110" height="20" as="geometry" />
        </mxCell>
        <mxCell id="0lumbmYqUkXYzNoHHmEW-26" value="&lt;b style=&quot;color: rgb(255 , 0 , 0)&quot;&gt;微服务&lt;/b&gt;&lt;br&gt;user-service" style="rounded=1;whiteSpace=wrap;html=1;" vertex="1" parent="1">
          <mxGeometry x="800" y="320" width="120" height="80" as="geometry" />
        </mxCell>
        <mxCell id="0lumbmYqUkXYzNoHHmEW-28" value="" style="edgeStyle=orthogonalEdgeStyle;rounded=0;orthogonalLoop=1;jettySize=auto;html=1;" edge="1" parent="1" source="0lumbmYqUkXYzNoHHmEW-27" target="0lumbmYqUkXYzNoHHmEW-26">
          <mxGeometry relative="1" as="geometry" />
        </mxCell>
        <mxCell id="0lumbmYqUkXYzNoHHmEW-27" value="&lt;b style=&quot;color: rgb(255 , 0 , 0)&quot;&gt;微服务&lt;/b&gt;&lt;br&gt;order-service" style="rounded=1;whiteSpace=wrap;html=1;" vertex="1" parent="1">
          <mxGeometry x="800" y="480" width="120" height="80" as="geometry" />
        </mxCell>
        <mxCell id="0lumbmYqUkXYzNoHHmEW-31" value="" style="endArrow=classic;html=1;exitX=0.25;exitY=1;exitDx=0;exitDy=0;entryX=0.25;entryY=0;entryDx=0;entryDy=0;" edge="1" parent="1" source="0lumbmYqUkXYzNoHHmEW-26" target="0lumbmYqUkXYzNoHHmEW-27">
          <mxGeometry width="50" height="50" relative="1" as="geometry">
            <mxPoint x="750" y="470" as="sourcePoint" />
            <mxPoint x="800" y="420" as="targetPoint" />
          </mxGeometry>
        </mxCell>
        <mxCell id="0lumbmYqUkXYzNoHHmEW-32" value="&lt;b&gt;&lt;font color=&quot;#ff0000&quot;&gt;RPC&lt;/font&gt;&lt;/b&gt;" style="text;html=1;align=center;verticalAlign=middle;resizable=0;points=[];autosize=1;strokeColor=none;" vertex="1" parent="1">
          <mxGeometry x="775" y="430" width="50" height="20" as="geometry" />
        </mxCell>
        <mxCell id="0lumbmYqUkXYzNoHHmEW-33" value="&lt;b style=&quot;color: rgb(0, 0, 0); font-family: helvetica; font-size: 12px; font-style: normal; letter-spacing: normal; text-align: center; text-indent: 0px; text-transform: none; word-spacing: 0px; background-color: rgb(248, 249, 250);&quot;&gt;&lt;font color=&quot;#ff0000&quot;&gt;RPC&lt;/font&gt;&lt;/b&gt;" style="text;whiteSpace=wrap;html=1;" vertex="1" parent="1">
          <mxGeometry x="880" y="425" width="60" height="30" as="geometry" />
        </mxCell>
        <mxCell id="0lumbmYqUkXYzNoHHmEW-34" value="" style="endArrow=classic;html=1;exitX=1.017;exitY=0.544;exitDx=0;exitDy=0;exitPerimeter=0;" edge="1" parent="1" source="0lumbmYqUkXYzNoHHmEW-14">
          <mxGeometry width="50" height="50" relative="1" as="geometry">
            <mxPoint x="650" y="360" as="sourcePoint" />
            <mxPoint x="800" y="340" as="targetPoint" />
            <Array as="points" />
          </mxGeometry>
        </mxCell>
        <mxCell id="0lumbmYqUkXYzNoHHmEW-35" value="" style="endArrow=classic;html=1;" edge="1" parent="1">
          <mxGeometry width="50" height="50" relative="1" as="geometry">
            <mxPoint x="800" y="385" as="sourcePoint" />
            <mxPoint x="651" y="385" as="targetPoint" />
          </mxGeometry>
        </mxCell>
        <mxCell id="0lumbmYqUkXYzNoHHmEW-36" value="" style="endArrow=classic;html=1;entryX=0;entryY=0.25;entryDx=0;entryDy=0;exitX=1.017;exitY=0.544;exitDx=0;exitDy=0;exitPerimeter=0;" edge="1" parent="1">
          <mxGeometry width="50" height="50" relative="1" as="geometry">
            <mxPoint x="650" y="501.1200000000001" as="sourcePoint" />
            <mxPoint x="797.28" y="500" as="targetPoint" />
            <Array as="points" />
          </mxGeometry>
        </mxCell>
        <mxCell id="0lumbmYqUkXYzNoHHmEW-37" value="" style="endArrow=classic;html=1;" edge="1" parent="1">
          <mxGeometry width="50" height="50" relative="1" as="geometry">
            <mxPoint x="800" y="540" as="sourcePoint" />
            <mxPoint x="651" y="540" as="targetPoint" />
          </mxGeometry>
        </mxCell>
        <mxCell id="0lumbmYqUkXYzNoHHmEW-38" value="&lt;b&gt;&lt;font color=&quot;#ff0000&quot;&gt;rest（http）&lt;/font&gt;&lt;/b&gt;" style="text;html=1;align=center;verticalAlign=middle;resizable=0;points=[];autosize=1;strokeColor=none;" vertex="1" parent="1">
          <mxGeometry x="670" y="310" width="110" height="20" as="geometry" />
        </mxCell>
        <mxCell id="0lumbmYqUkXYzNoHHmEW-39" value="&lt;b style=&quot;color: rgb(0, 0, 0); font-family: helvetica; font-size: 12px; font-style: normal; letter-spacing: normal; text-align: center; text-indent: 0px; text-transform: none; word-spacing: 0px; background-color: rgb(248, 249, 250);&quot;&gt;&lt;font color=&quot;#ff0000&quot;&gt;rest（http）&lt;/font&gt;&lt;/b&gt;" style="text;whiteSpace=wrap;html=1;" vertex="1" parent="1">
          <mxGeometry x="680" y="460" width="120" height="30" as="geometry" />
        </mxCell>
        <mxCell id="0lumbmYqUkXYzNoHHmEW-40" value="返回结果" style="text;html=1;align=center;verticalAlign=middle;resizable=0;points=[];autosize=1;strokeColor=none;" vertex="1" parent="1">
          <mxGeometry x="685" y="400" width="80" height="20" as="geometry" />
        </mxCell>
        <mxCell id="0lumbmYqUkXYzNoHHmEW-43" value="返回结果" style="text;html=1;align=center;verticalAlign=middle;resizable=0;points=[];autosize=1;strokeColor=none;" vertex="1" parent="1">
          <mxGeometry x="680" y="550" width="80" height="20" as="geometry" />
        </mxCell>
        <mxCell id="0lumbmYqUkXYzNoHHmEW-44" value="" style="endArrow=classic;html=1;entryX=-0.013;entryY=0.665;entryDx=0;entryDy=0;entryPerimeter=0;" edge="1" parent="1" target="0lumbmYqUkXYzNoHHmEW-14">
          <mxGeometry width="50" height="50" relative="1" as="geometry">
            <mxPoint x="360" y="400" as="sourcePoint" />
            <mxPoint x="410" y="350" as="targetPoint" />
          </mxGeometry>
        </mxCell>
        <mxCell id="0lumbmYqUkXYzNoHHmEW-45" value="鉴权通过，&lt;br&gt;转发请求" style="text;html=1;align=center;verticalAlign=middle;resizable=0;points=[];autosize=1;strokeColor=none;" vertex="1" parent="1">
          <mxGeometry x="375" y="350" width="100" height="30" as="geometry" />
        </mxCell>
        <mxCell id="0lumbmYqUkXYzNoHHmEW-46" value="" style="endArrow=classic;html=1;" edge="1" parent="1">
          <mxGeometry width="50" height="50" relative="1" as="geometry">
            <mxPoint x="490" y="480" as="sourcePoint" />
            <mxPoint x="360" y="480" as="targetPoint" />
          </mxGeometry>
        </mxCell>
        <mxCell id="0lumbmYqUkXYzNoHHmEW-47" value="返回结果" style="text;html=1;align=center;verticalAlign=middle;resizable=0;points=[];autosize=1;strokeColor=none;" vertex="1" parent="1">
          <mxGeometry x="380" y="500" width="80" height="20" as="geometry" />
        </mxCell>
        <mxCell id="0lumbmYqUkXYzNoHHmEW-48" value="" style="endArrow=classic;html=1;" edge="1" parent="1">
          <mxGeometry width="50" height="50" relative="1" as="geometry">
            <mxPoint x="200" y="479" as="sourcePoint" />
            <mxPoint x="80" y="478.82" as="targetPoint" />
          </mxGeometry>
        </mxCell>
        <mxCell id="0lumbmYqUkXYzNoHHmEW-49" value="&lt;span style=&quot;color: rgb(0, 0, 0); font-family: helvetica; font-size: 12px; font-style: normal; font-weight: 400; letter-spacing: normal; text-align: center; text-indent: 0px; text-transform: none; word-spacing: 0px; background-color: rgb(248, 249, 250); display: inline; float: none;&quot;&gt;返回结果&lt;/span&gt;" style="text;whiteSpace=wrap;html=1;" vertex="1" parent="1">
          <mxGeometry x="105" y="495" width="90" height="30" as="geometry" />
        </mxCell>
        <mxCell id="0lumbmYqUkXYzNoHHmEW-50" value="" style="endArrow=classic;html=1;" edge="1" parent="1">
          <mxGeometry width="50" height="50" relative="1" as="geometry">
            <mxPoint x="87.07999999999998" y="399.62" as="sourcePoint" />
            <mxPoint x="200" y="399" as="targetPoint" />
          </mxGeometry>
        </mxCell>
        <mxCell id="0lumbmYqUkXYzNoHHmEW-51" value="&lt;span style=&quot;color: rgb(0 , 0 , 0) ; font-family: &amp;#34;helvetica&amp;#34; ; font-size: 12px ; font-style: normal ; font-weight: 400 ; letter-spacing: normal ; text-align: center ; text-indent: 0px ; text-transform: none ; word-spacing: 0px ; background-color: rgb(248 , 249 , 250) ; display: inline ; float: none&quot;&gt;携带JWT，&lt;/span&gt;&lt;br style=&quot;color: rgb(0 , 0 , 0) ; font-family: &amp;#34;helvetica&amp;#34; ; font-size: 12px ; font-style: normal ; font-weight: 400 ; letter-spacing: normal ; text-align: center ; text-indent: 0px ; text-transform: none ; word-spacing: 0px ; background-color: rgb(248 , 249 , 250)&quot;&gt;&lt;span style=&quot;color: rgb(0 , 0 , 0) ; font-family: &amp;#34;helvetica&amp;#34; ; font-size: 12px ; font-style: normal ; font-weight: 400 ; letter-spacing: normal ; text-align: center ; text-indent: 0px ; text-transform: none ; word-spacing: 0px ; background-color: rgb(248 , 249 , 250) ; display: inline ; float: none&quot;&gt;请求接口&lt;/span&gt;" style="text;whiteSpace=wrap;html=1;" vertex="1" parent="1">
          <mxGeometry x="105" y="345" width="85" height="40" as="geometry" />
        </mxCell>
      </root>
    </mxGraphModel>
  </diagram>
</mxfile>
